SubjTestsquat
version=1
nRows=35
nColumns=19
inDegrees=no
endheader
time	l_ground_force_vx	l_ground_force_vy	l_ground_force_vz	l_ground_force_px	l_ground_force_py	l_ground_force_pz	ground_force_vx	ground_force_vy	ground_force_vz	ground_force_px	ground_force_py	ground_force_pz	l_ground_torque_x	l_ground_torque_y	l_ground_torque_z	ground_torque_x	ground_torque_y	ground_torque_z	
0	-6.41443968434884	275.416380308464	44.3877351934082	0.14235554338808	0	-0.141863727295227	20.6418256372411	297.756394357646	-31.7592127426825	0.109666963445396	0	0.112664609966073	0	-4.97173290830844	0	0	7.1705103890088	0
0.01	-6.18189831117374	276.52595798121	44.9467566156854	0.14146436504008	0	-0.141789217239065	20.3735054777296	295.377232404691	-31.2599134999938	0.110139826643169	0	0.112440690845106	0	-4.97613045237016	0	0	7.04139595091234	0
0.02	-5.74955805202927	277.355224465699	45.5818394510111	0.140431618080868	0	-0.141718143447792	20.0754988892312	293.32174923792	-30.7782627360818	0.11073527409886	0	0.112214629090459	0	-4.66890022911913	0	0	6.85142204605884	0
0.03	-5.30758365054635	278.035227106147	46.1989916618875	0.139382800433107	0	-0.141670848862082	19.773334571444	291.752820817571	-30.3527877916272	0.111263331149382	0	0.112103788430733	0	-4.28650380260391	0	0	6.62260420340839	0
0.04	-5.02827213062148	278.656040761921	46.6958596032376	0.138461645127494	0	-0.141509063190469	19.5250013867136	290.587207619598	-30.0800488913807	0.111725369611968	0	0.112075586630365	0	-4.02751395765913	0	0	6.46779987365599	0
0.05	-4.77845660612751	279.245337825752	46.9845226326604	0.137710690592445	0	-0.141276116585561	19.3030507745909	289.705490039689	-29.9114116050691	0.112053650171352	0	0.112034282777885	0	-3.72292686727414	0	0	6.38849582936724	0
0.06	-4.45070458356008	279.772772429417	47.0386472534849	0.137037009184477	0	-0.141129910056028	19.0302489044719	289.088622436938	-29.8176721268327	0.11225872859945	0	0.111943584623037	0	-3.20948471251576	0	0	6.35624214562261	0
0.07	-4.06032713140286	280.171669079541	46.9453581700341	0.136321567074764	0	-0.141148173053852	18.7376062674436	288.740713077496	-29.7471852449346	0.112329639257348	0	0.11191031982551	0	-2.52134581421077	0	0	6.36321418654453	0
0.08	-3.59956984410544	280.385959823114	46.8161978886119	0.135646886701503	0	-0.14132179154962	18.5340427825268	288.658531589391	-29.6126226203322	0.112446865958796	0	0.112055863028583	0	-1.80057077248137	0	0	6.31147899709877	0
0.09	-3.10557167211187	280.336808270017	46.7105094840885	0.135004384328037	0	-0.141642133654391	18.4625518769087	288.867704846861	-29.4131218285668	0.112752480216721	0	0.112290345065999	0	-1.0998074119568	0	0	6.26800687088042	0
0.1	-2.6936302727098	279.845386179721	46.5977198955483	0.134214715422865	0	-0.141998814563941	18.4752390167486	289.492526108402	-29.1482389380797	0.112912435594507	0	0.112526774706132	0	-0.59395473123451	0	0	6.2481775027134	0
0.11	-2.44383250970126	278.558194475016	46.3614736713156	0.133697084084123	0	-0.142238962924909	18.4414087803235	290.706996484822	-29.059354777185	0.113153268352239	0	0.112622753315856	0	-0.372336966456749	0	0	6.17922570750668	0
0.12	-2.08288603499108	276.243446298156	45.830623173477	0.133467892799915	0	-0.142366449082898	18.3466124040939	292.874451398562	-29.2945903908637	0.113593729935646	0	0.112489541882829	0	-0.103376929782913	0	0	6.21164395184802	0
0.13	-1.36732106766292	272.889934580296	45.0660185575311	0.132839424872321	0	-0.142383261331812	18.2801369914552	296.493035632573	-29.6959271101889	0.113840064659748	0	0.11231177295476	0	0.469822021927752	0	0	6.4183573359078	0
0.14	-0.400956544938594	268.562509585963	44.2385190491646	0.131505408557953	0	-0.142318411526517	18.247490328953	302.001564822071	-30.1999132545018	0.113766737024345	0	0.112318159178905	0	1.44765196497429	0	0	6.72153612228416	0
0.15	0.573747697236954	263.126500848351	43.2665619271151	0.1298927482729	0	-0.142237141539868	18.1461096709591	309.593551164891	-30.9211261445761	0.113584311824633	0	0.112563736879034	0	2.71638915918235	0	0	7.02039437134739	0
0.16	1.38204376606863	256.320463177604	41.9200717953539	0.128602732840282	0	-0.142087501481586	17.9785601461663	319.288190357104	-31.9127849003241	0.113316026587741	0	0.113075661584179	0	3.86890928861798	0	0	7.35242353678206	0
0.17	1.86090545156217	247.850152391793	40.2934836797884	0.128090529228407	0	-0.141700613965382	17.7588351968595	330.706957160914	-33.2040251503793	0.113121093349377	0	0.113791157361557	0	4.54655178784196	0	0	7.77320150272535	0
0.18	1.9927526673121	237.669489639223	38.593143897503	0.128516057747316	0	-0.141130304514415	17.4173917190453	343.055747920755	-34.7201032695999	0.113195564934699	0	0.114522720658982	0	4.74675442968985	0	0	8.23432981695875	0
0.19	1.863785799704	226.048224156018	36.8495163698431	0.129741856260053	0	-0.140566532004938	16.801025836414	355.496775925987	-36.3567302334597	0.113777334003346	0	0.115103859703234	0	4.64741235109342	0	0	8.56470237234986	0
0.2	1.52367056639347	213.431493485743	34.9545503081896	0.131320990914033	0	-0.140091020776878	15.8798614843923	367.61655470574	-38.0874701271588	0.114785868992963	0	0.115609427884732	0	4.34404156165478	0	0	8.70120101234095	0
0.21	1.13161425820362	200.295252621448	32.9248619497985	0.132615788332667	0	-0.139602393906259	14.8097339688816	379.220345777752	-39.7830040354091	0.115825627036017	0	0.116221896697285	0	3.93538007034888	0	0	8.68189767302473	0
0.22	0.788411412578929	187.008371805617	30.8767843158724	0.132993179344588	0	-0.139033591088251	13.7426200501685	390.121677477258	-41.3991850797145	0.116770149341756	0	0.116984632611199	0	3.52872353870284	0	0	8.58599263195595	0
0.23	0.420535918884196	173.63373138788	28.9490754491942	0.132708202450153	0	-0.138342099255148	12.7766469554909	400.271593522128	-43.0534192462982	0.117691653553681	0	0.117816527643823	0	3.17328136017819	0	0	8.57376496386406	0
0.24	0.0411197796964189	160.118462906321	27.26475588965	0.132484647929654	0	-0.137401932575923	12.0569100436511	409.885411196692	-44.6516495121415	0.118457158250688	0	0.118573498482095	0	2.8416659889466	0	0	8.85639790877594	0
0.25	-0.364902068764301	146.538010583435	25.8304879109977	0.132814874020974	0	-0.136213030451506	11.5723323798106	419.363544027318	-45.9813983538153	0.118969621993101	0	0.119213872787469	0	2.29579876350285	0	0	9.31711477152477	0
0.26	-0.915603902185278	133.124779579693	24.6683309231315	0.134241254777347	0	-0.134816419400621	11.0834639973444	428.929510514566	-47.0861135437622	0.119539568320401	0	0.119713752766931	0	1.44183104212279	0	0	9.77281274630436	0
0.27	-1.62916193150779	120.268322865191	23.7688427720354	0.136376164697808	0	-0.133244404105028	10.4668906699272	438.596841617769	-48.0736491737083	0.120266652389462	0	0.120114480762134	0	0.353178665717142	0	0	10.1443132942183	0
0.28	-2.50870964739612	108.263845292301	23.0826063664749	0.13830936390099	0	-0.13121189756888	9.90025790884338	448.024434387888	-48.9523329698392	0.120880003334664	0	0.12052088628521	0	-1.10841760392611	0	0	10.3069361280518	0
0.29	-3.5121480710737	97.2473969789809	22.5247446706849	0.1400328921233	0	-0.128478084871288	9.503409109494	456.679394183188	-49.7856647655182	0.121268904591284	0	0.120885823358829	0	-2.77553376881804	0	0	10.3519850774745	0
0.3	-4.48372913059291	87.4211511038549	22.0358322360266	0.141428303189945	0	-0.125255828833634	9.36128457328974	464.294470003401	-50.525766522044	0.121549623478044	0	0.121144806359803	0	-4.33743694495272	0	0	10.4465886516844	0
0.31	-5.19465865990361	79.0288692219198	21.5821021632208	0.141879808561026	0	-0.12200670688883	9.55367186767509	470.799840451769	-51.107559779723	0.121706566845052	0	0.121349878205192	0	-5.64927209943282	0	0	10.6245027315869	0
0.32	-5.47055112000555	72.058373094656	21.0965964700186	0.140140992814797	0	-0.118921582172643	9.97535930067883	475.984982592229	-51.5060384046086	0.121631895186283	0	0.121540105413434	0	-6.48517428819665	0	0	10.857704813399	0
0.33	-5.37248522543206	66.2221133793169	20.748431993587	0.13669926234302	0	-0.115577457001074	10.3895410874928	479.372773563826	-51.6972494256393	0.121462657701381	0	0.1217222439373	0	-6.71762914090154	0	0	11.0157546668162	0
0.34	-5.03158451674013	61.3202725711798	20.6229985955937	0.134099736496681	0	-0.11182660575673	10.6649047045569	480.521663237476	-51.7873931295064	0.121367348269967	0	0.121846538512865	0	-6.40807926105711	0	0	10.9606023882964	0
